<mxfile host="app.diagrams.net" modified="2022-02-22T02:42:10.960Z" agent="5.0 (Windows NT 10.0; Win64; x64) AppleWebKit/537.36 (KHTML, like Gecko) Chrome/98.0.4758.102 Safari/537.36" etag="xyNeX4QJQi-Bh5CdkXvQ" version="16.4.11" type="github">
  <diagram id="XDDx-GEk-ggE7Qq7s85F" name="Page-1">
    <mxGraphModel dx="878" dy="720" grid="1" gridSize="10" guides="1" tooltips="1" connect="1" arrows="1" fold="1" page="1" pageScale="1" pageWidth="1169" pageHeight="1654" math="0" shadow="0">
      <root>
        <mxCell id="0" />
        <mxCell id="1" parent="0" />
        <mxCell id="GZAtgEKcXVX9zS-eENgM-3" value="" style="edgeStyle=orthogonalEdgeStyle;rounded=0;orthogonalLoop=1;jettySize=auto;html=1;" edge="1" parent="1" source="GZAtgEKcXVX9zS-eENgM-1" target="GZAtgEKcXVX9zS-eENgM-2">
          <mxGeometry relative="1" as="geometry" />
        </mxCell>
        <mxCell id="GZAtgEKcXVX9zS-eENgM-1" value="시작" style="rounded=0;whiteSpace=wrap;html=1;" vertex="1" parent="1">
          <mxGeometry x="210" y="70" width="120" height="60" as="geometry" />
        </mxCell>
        <mxCell id="GZAtgEKcXVX9zS-eENgM-5" value="" style="edgeStyle=orthogonalEdgeStyle;rounded=0;orthogonalLoop=1;jettySize=auto;html=1;" edge="1" parent="1" source="GZAtgEKcXVX9zS-eENgM-2" target="GZAtgEKcXVX9zS-eENgM-4">
          <mxGeometry relative="1" as="geometry" />
        </mxCell>
        <mxCell id="GZAtgEKcXVX9zS-eENgM-2" value="트레이모터 동작" style="rounded=0;whiteSpace=wrap;html=1;" vertex="1" parent="1">
          <mxGeometry x="210" y="210" width="120" height="60" as="geometry" />
        </mxCell>
        <mxCell id="GZAtgEKcXVX9zS-eENgM-14" value="" style="edgeStyle=orthogonalEdgeStyle;rounded=0;orthogonalLoop=1;jettySize=auto;html=1;" edge="1" parent="1" source="GZAtgEKcXVX9zS-eENgM-4" target="GZAtgEKcXVX9zS-eENgM-13">
          <mxGeometry relative="1" as="geometry" />
        </mxCell>
        <mxCell id="GZAtgEKcXVX9zS-eENgM-20" value="" style="edgeStyle=orthogonalEdgeStyle;rounded=0;orthogonalLoop=1;jettySize=auto;html=1;" edge="1" parent="1" source="GZAtgEKcXVX9zS-eENgM-4" target="GZAtgEKcXVX9zS-eENgM-19">
          <mxGeometry relative="1" as="geometry" />
        </mxCell>
        <mxCell id="GZAtgEKcXVX9zS-eENgM-4" value="디스크&lt;br&gt;장착" style="rhombus;whiteSpace=wrap;html=1;rounded=0;" vertex="1" parent="1">
          <mxGeometry x="230" y="340" width="80" height="80" as="geometry" />
        </mxCell>
        <mxCell id="GZAtgEKcXVX9zS-eENgM-16" value="" style="edgeStyle=orthogonalEdgeStyle;rounded=0;orthogonalLoop=1;jettySize=auto;html=1;" edge="1" parent="1" source="GZAtgEKcXVX9zS-eENgM-13" target="GZAtgEKcXVX9zS-eENgM-15">
          <mxGeometry relative="1" as="geometry" />
        </mxCell>
        <mxCell id="GZAtgEKcXVX9zS-eENgM-13" value="트레이 인입" style="whiteSpace=wrap;html=1;rounded=0;" vertex="1" parent="1">
          <mxGeometry x="370" y="350" width="120" height="60" as="geometry" />
        </mxCell>
        <mxCell id="GZAtgEKcXVX9zS-eENgM-18" value="" style="edgeStyle=orthogonalEdgeStyle;rounded=0;orthogonalLoop=1;jettySize=auto;html=1;" edge="1" parent="1" source="GZAtgEKcXVX9zS-eENgM-15" target="GZAtgEKcXVX9zS-eENgM-17">
          <mxGeometry relative="1" as="geometry" />
        </mxCell>
        <mxCell id="GZAtgEKcXVX9zS-eENgM-15" value="포토인터럽트 동작" style="whiteSpace=wrap;html=1;rounded=0;" vertex="1" parent="1">
          <mxGeometry x="570" y="350" width="120" height="60" as="geometry" />
        </mxCell>
        <mxCell id="GZAtgEKcXVX9zS-eENgM-26" value="" style="edgeStyle=orthogonalEdgeStyle;rounded=0;orthogonalLoop=1;jettySize=auto;html=1;" edge="1" parent="1" source="GZAtgEKcXVX9zS-eENgM-17" target="GZAtgEKcXVX9zS-eENgM-25">
          <mxGeometry relative="1" as="geometry" />
        </mxCell>
        <mxCell id="GZAtgEKcXVX9zS-eENgM-17" value="트레이 멈춤" style="whiteSpace=wrap;html=1;rounded=0;" vertex="1" parent="1">
          <mxGeometry x="570" y="490" width="120" height="60" as="geometry" />
        </mxCell>
        <mxCell id="GZAtgEKcXVX9zS-eENgM-19" value="검사시작" style="whiteSpace=wrap;html=1;rounded=0;" vertex="1" parent="1">
          <mxGeometry x="210" y="510" width="120" height="60" as="geometry" />
        </mxCell>
        <mxCell id="GZAtgEKcXVX9zS-eENgM-28" value="" style="edgeStyle=orthogonalEdgeStyle;rounded=0;orthogonalLoop=1;jettySize=auto;html=1;" edge="1" parent="1" source="GZAtgEKcXVX9zS-eENgM-25" target="GZAtgEKcXVX9zS-eENgM-27">
          <mxGeometry relative="1" as="geometry" />
        </mxCell>
        <mxCell id="GZAtgEKcXVX9zS-eENgM-25" value="스텝모터 동작" style="whiteSpace=wrap;html=1;rounded=0;" vertex="1" parent="1">
          <mxGeometry x="570" y="630" width="120" height="60" as="geometry" />
        </mxCell>
        <mxCell id="GZAtgEKcXVX9zS-eENgM-35" value="" style="edgeStyle=orthogonalEdgeStyle;rounded=0;orthogonalLoop=1;jettySize=auto;html=1;" edge="1" parent="1" source="GZAtgEKcXVX9zS-eENgM-27" target="GZAtgEKcXVX9zS-eENgM-34">
          <mxGeometry relative="1" as="geometry" />
        </mxCell>
        <mxCell id="GZAtgEKcXVX9zS-eENgM-27" value="스텝모터 정지 후 BLDC 동작" style="whiteSpace=wrap;html=1;rounded=0;" vertex="1" parent="1">
          <mxGeometry x="370" y="630" width="120" height="60" as="geometry" />
        </mxCell>
        <mxCell id="GZAtgEKcXVX9zS-eENgM-36" value="" style="edgeStyle=orthogonalEdgeStyle;rounded=0;orthogonalLoop=1;jettySize=auto;html=1;" edge="1" parent="1" source="GZAtgEKcXVX9zS-eENgM-34" target="GZAtgEKcXVX9zS-eENgM-19">
          <mxGeometry relative="1" as="geometry" />
        </mxCell>
        <mxCell id="GZAtgEKcXVX9zS-eENgM-34" value="BLDC 회전" style="whiteSpace=wrap;html=1;rounded=0;" vertex="1" parent="1">
          <mxGeometry x="370" y="510" width="120" height="60" as="geometry" />
        </mxCell>
      </root>
    </mxGraphModel>
  </diagram>
</mxfile>
